<svg width="1248" height="715" xmlns="http://www.w3.org/2000/svg" xmlns:xlink="http://www.w3.org/1999/xlink" overflow="hidden"><defs><clipPath id="clip0"><rect x="9" y="-6" width="1248" height="715"/></clipPath></defs><g clip-path="url(#clip0)" transform="translate(-9 6)"><path d="M884.5 108.834C884.5 100.365 891.365 93.5001 899.834 93.5001L1234.17 93.5001C1242.63 93.5001 1249.5 100.365 1249.5 108.834L1249.5 170.166C1249.5 178.635 1242.63 185.5 1234.17 185.5L899.834 185.5C891.365 185.5 884.5 178.635 884.5 170.166Z" stroke="#7030A0" stroke-width="1.33333" stroke-miterlimit="8" fill="#7030A0" fill-rule="evenodd"/><text fill="#FFFFFF" font-family="Calibri,Calibri_MSFontService,sans-serif" font-weight="400" font-size="48" transform="translate(1021.75 155)">start</text><path d="M889.5 620C889.5 611.44 896.44 604.5 905 604.5L1239 604.5C1247.56 604.5 1254.5 611.44 1254.5 620L1254.5 682C1254.5 690.56 1247.56 697.5 1239 697.5L905 697.5C896.44 697.5 889.5 690.56 889.5 682Z" stroke="#7030A0" stroke-width="1.33333" stroke-miterlimit="8" fill="#7030A0" fill-rule="evenodd"/><text fill="#FFFFFF" font-family="Calibri,Calibri_MSFontService,sans-serif" font-weight="400" font-size="48" transform="translate(1034.61 667)">end</text><path d="M455.5 181.5 476.75 96.5001 820.5 96.5001 799.25 181.5Z" stroke="#507E32" stroke-width="1.33333" stroke-miterlimit="8" fill="#70AD47" fill-rule="evenodd"/><text fill="#FFFFFF" font-family="Calibri,Calibri_MSFontService,sans-serif" font-weight="400" font-size="48" transform="translate(539.186 155)">Input: age<tspan fill="#000000" font-size="43" x="-503.614" y="-108">Example #3</tspan></text><rect x="26.5001" y="96.5001" width="365" height="86" stroke="#2F528F" stroke-width="1.33333" stroke-miterlimit="8" fill="#4472C4"/><text fill="#FFFFFF" font-family="Calibri,Calibri_MSFontService,sans-serif" font-weight="400" font-size="43" transform="translate(46.7259 153)">decade = age // 10</text><path d="M2.10524e-06-1.5 71.834-1.4999 71.834 1.5001-2.10524e-06 1.5ZM63.5898-6.54558 74.8109 0.000104927 63.5898 6.54576C62.8742 6.96318 61.9557 6.72147 61.5383 6.00589 61.1209 5.29031 61.3626 4.37184 62.0782 3.95442L71.0782-1.29557 71.0782 1.29577 62.0782-3.95424C61.3626-4.37167 61.1209-5.29014 61.5383-6.00572 61.9557-6.7213 62.8742-6.963 63.5898-6.54558Z" fill="#FF0000" transform="matrix(-1 0 0 1 884.304 139.5)"/><path d="M466.304 141 394.47 141 394.47 138 466.304 138ZM402.714 146.046 391.493 139.5 402.714 132.954C403.43 132.537 404.348 132.779 404.766 133.494 405.183 134.21 404.941 135.128 404.226 135.546L395.226 140.796 395.226 138.204 404.226 143.454C404.941 143.872 405.183 144.79 404.766 145.506 404.348 146.221 403.43 146.463 402.714 146.046Z" fill="#FF0000"/><path d="M1.5-2.86878e-06 1.5002 106.819-1.4998 106.819-1.5 2.86878e-06ZM6.54586 98.5748 0.000210456 109.796-6.54548 98.5748C-6.9629 97.8592-6.7212 96.9407-6.00562 96.5233-5.29004 96.1059-4.37157 96.3476-3.95415 97.0632L1.29587 106.063-1.29547 106.063 3.95452 97.0632C4.37194 96.3476 5.29041 96.1059 6.00599 96.5233 6.72157 96.9407 6.96328 97.8592 6.54586 98.5748Z" fill="#FF0000" transform="matrix(-1 0 0 1 208.5 182.5)"/><path d="M26.5001 391 209 292.5 391.5 391 209 489.5Z" stroke="#BC8C00" stroke-width="1.33333" stroke-miterlimit="8" fill="#FFC000" fill-rule="evenodd"/><text fill="#FFFFFF" font-family="Calibri,Calibri_MSFontService,sans-serif" font-weight="400" font-size="32" transform="translate(130.006 401)">decade &gt;= 4</text><rect x="889.5" y="351.5" width="365" height="79" stroke="#2F528F" stroke-width="1.33333" stroke-miterlimit="8" fill="#4472C4"/><text fill="#FFFFFF" font-family="Calibri,Calibri_MSFontService,sans-serif" font-weight="400" font-size="37" transform="translate(909.521 403)">age_status<tspan font-size="37" x="171.307" y="0">= “young”</tspan></text><rect x="26.5001" y="611.5" width="365" height="79" stroke="#2F528F" stroke-width="1.33333" stroke-miterlimit="8" fill="#4472C4"/><text fill="#FFFFFF" font-family="Calibri,Calibri_MSFontService,sans-serif" font-weight="400" font-size="37" transform="translate(70.189 663)">age_status<tspan font-size="37" x="171.307" y="0">= “old”</tspan></text><path d="M391.5 389 886.984 389 886.984 392 391.5 392ZM878.742 383.954 889.963 390.5 878.741 397.046C878.026 397.463 877.107 397.222 876.69 396.506 876.273 395.79 876.514 394.872 877.23 394.454L886.23 389.204 886.23 391.796 877.23 386.546C876.514 386.128 876.273 385.21 876.69 384.494 877.107 383.779 878.026 383.537 878.742 383.954Z" fill="#FF0000"/><path d="M391.5 649 887.05 649 887.05 652 391.5 652ZM878.808 643.954 890.029 650.5 878.807 657.046C878.092 657.463 877.173 657.222 876.756 656.506 876.339 655.79 876.58 654.872 877.296 654.454L886.296 649.204 886.296 651.796 877.296 646.546C876.58 646.128 876.339 645.21 876.756 644.494 877.173 643.779 878.092 643.537 878.808 643.954Z" fill="#FF0000"/><path d="M1.5-1.29369e-06 1.5001 118.759-1.4999 118.759-1.5 1.29369e-06ZM6.54576 110.515 0.000105301 121.736-6.54557 110.515C-6.96299 109.8-6.72129 108.881-6.00571 108.464-5.29014 108.046-4.37166 108.288-3.95424 109.004L1.29577 118.004-1.29557 118.004 3.95443 109.004C4.37185 108.288 5.29032 108.046 6.0059 108.464 6.72148 108.881 6.96318 109.8 6.54576 110.515Z" fill="#FF0000" transform="matrix(-1 0 0 1 208.5 489.5)"/><path d="M1074 430.499 1074.06 601.883 1071.06 601.884 1071 430.501ZM1079.11 593.636 1072.57 604.86 1066.02 593.641C1065.6 592.926 1065.84 592.007 1066.56 591.589 1067.27 591.172 1068.19 591.413 1068.61 592.128L1073.86 601.126 1071.27 601.127 1076.52 592.125C1076.93 591.41 1077.85 591.168 1078.57 591.585 1079.28 592.002 1079.52 592.92 1079.11 593.636Z" fill="#FF0000"/><text font-family="Calibri,Calibri_MSFontService,sans-serif" font-weight="400" font-size="53" transform="translate(459.069 372)">No<tspan font-size="53" x="-352.131" y="178">Yes</tspan></text></g></svg>