<svg width="1238" height="638" xmlns="http://www.w3.org/2000/svg" xmlns:xlink="http://www.w3.org/1999/xlink" overflow="hidden"><defs><clipPath id="clip0"><rect x="24" y="91" width="1238" height="638"/></clipPath></defs><g clip-path="url(#clip0)" transform="translate(-24 -91)"><path d="M884.5 108.834C884.5 100.365 891.365 93.5001 899.834 93.5001L1234.17 93.5001C1242.63 93.5001 1249.5 100.365 1249.5 108.834L1249.5 170.166C1249.5 178.635 1242.63 185.5 1234.17 185.5L899.834 185.5C891.365 185.5 884.5 178.635 884.5 170.166Z" stroke="#7030A0" stroke-width="1.33333" stroke-miterlimit="8" fill="#7030A0" fill-rule="evenodd"/><text fill="#FFFFFF" font-family="Calibri,Calibri_MSFontService,sans-serif" font-weight="400" font-size="48" transform="translate(1021.75 155)">start</text><path d="M896.5 639.834C896.5 631.365 903.365 624.5 911.834 624.5L1246.17 624.5C1254.63 624.5 1261.5 631.365 1261.5 639.834L1261.5 701.166C1261.5 709.635 1254.63 716.5 1246.17 716.5L911.834 716.5C903.365 716.5 896.5 709.635 896.5 701.166Z" stroke="#7030A0" stroke-width="1.33333" stroke-miterlimit="8" fill="#7030A0" fill-rule="evenodd"/><text fill="#FFFFFF" font-family="Calibri,Calibri_MSFontService,sans-serif" font-weight="400" font-size="48" transform="translate(1041.19 686)">end</text><path d="M455.5 181.5 476.75 96.5001 820.5 96.5001 799.25 181.5Z" stroke="#507E32" stroke-width="1.33333" stroke-miterlimit="8" fill="#70AD47" fill-rule="evenodd"/><text fill="#FFFFFF" font-family="Calibri,Calibri_MSFontService,sans-serif" font-weight="400" font-size="32" transform="translate(571.953 149)">Input: age</text><rect x="26.5001" y="96.5001" width="365" height="86" stroke="#2F528F" stroke-width="1.33333" stroke-miterlimit="8" fill="#4472C4"/><text fill="#FFFFFF" font-family="Calibri,Calibri_MSFontService,sans-serif" font-weight="400" font-size="32" transform="translate(87.3893 149)">decade = age // 10</text><path d="M2.10524e-06-1.5 71.834-1.4999 71.834 1.5001-2.10524e-06 1.5ZM63.5898-6.54558 74.8109 0.000104927 63.5898 6.54576C62.8742 6.96318 61.9557 6.72147 61.5383 6.00589 61.1209 5.29031 61.3626 4.37184 62.0782 3.95442L71.0782-1.29557 71.0782 1.29577 62.0782-3.95424C61.3626-4.37167 61.1209-5.29014 61.5383-6.00572 61.9557-6.7213 62.8742-6.963 63.5898-6.54558Z" fill="#FF0000" transform="matrix(-1 0 0 1 884.304 139.5)"/><path d="M466.304 141 394.47 141 394.47 138 466.304 138ZM402.714 146.046 391.493 139.5 402.714 132.954C403.43 132.537 404.348 132.779 404.766 133.494 405.183 134.21 404.941 135.128 404.226 135.546L395.226 140.796 395.226 138.204 404.226 143.454C404.941 143.872 405.183 144.79 404.766 145.506 404.348 146.221 403.43 146.463 402.714 146.046Z" fill="#FF0000"/><path d="M1.5-2.86878e-06 1.5002 106.819-1.4998 106.819-1.5 2.86878e-06ZM6.54586 98.5748 0.000210456 109.796-6.54548 98.5748C-6.9629 97.8592-6.7212 96.9407-6.00562 96.5233-5.29004 96.1059-4.37157 96.3476-3.95415 97.0632L1.29587 106.063-1.29547 106.063 3.95452 97.0632C4.37194 96.3476 5.29041 96.1059 6.00599 96.5233 6.72157 96.9407 6.96328 97.8592 6.54586 98.5748Z" fill="#FF0000" transform="matrix(-1 0 0 1 208.5 182.5)"/><path d="M26.5001 391 209 292.5 391.5 391 209 489.5Z" stroke="#BC8C00" stroke-width="1.33333" stroke-miterlimit="8" fill="#FFC000" fill-rule="evenodd"/><text fill="#FFFFFF" font-family="Calibri,Calibri_MSFontService,sans-serif" font-weight="400" font-size="32" transform="translate(130.006 401)">decade &gt;= 4</text><rect x="904.5" y="351.5" width="350" height="79" stroke="#2F528F" stroke-width="1.33333" stroke-miterlimit="8" fill="#4472C4"/><text fill="#FFFFFF" font-family="Calibri,Calibri_MSFontService,sans-serif" font-weight="400" font-size="32" transform="translate(940.465 401)">age_status<tspan font-size="32" x="146.68" y="0">= “young”</tspan></text><rect x="26.5001" y="633.5" width="365" height="79" stroke="#2F528F" stroke-width="1.33333" stroke-miterlimit="8" fill="#4472C4"/><text fill="#FFFFFF" font-family="Calibri,Calibri_MSFontService,sans-serif" font-weight="400" font-size="32" transform="translate(90.1623 684)">age_status<tspan font-size="32" x="146.68" y="0">= “old”</tspan></text><path d="M391.515 389 473.976 389.799 473.947 392.799 391.486 392ZM465.781 384.674 476.938 391.328 465.654 397.765C464.934 398.175 464.018 397.924 463.608 397.205 463.197 396.485 463.448 395.569 464.167 395.159L473.218 389.996 473.193 392.587 464.244 387.25C463.532 386.826 463.3 385.905 463.724 385.194 464.148 384.482 465.069 384.25 465.781 384.674Z" fill="#FF0000"/><path d="M0.00781066-1.49998 502.129 1.11466 502.114 4.11462-0.00781066 1.49998ZM493.917-3.97384 505.104 2.63017 493.849 9.11732C493.131 9.53101 492.214 9.28452 491.8 8.56678 491.387 7.84904 491.633 6.93184 492.351 6.51815L501.378 1.31508 501.365 3.90638 492.392-1.39041C491.679-1.81155 491.442-2.73127 491.863-3.44467 492.284-4.15806 493.204-4.39498 493.917-3.97384Z" fill="#FF0000" transform="matrix(1 0 0 -1 391.5 673.13)"/><path d="M1.5-1.09296e-06 1.5001 141.115-1.4999 141.115-1.5 1.09296e-06ZM6.54576 132.871 0.000104466 144.093-6.54557 132.871C-6.96299 132.156-6.72129 131.237-6.00571 130.82-5.29013 130.402-4.37166 130.644-3.95424 131.36L1.29577 140.36-1.29557 140.36 3.95443 131.36C4.37185 130.644 5.29032 130.402 6.0059 130.82 6.72148 131.237 6.96318 132.156 6.54576 132.871Z" fill="#FF0000" transform="matrix(-1 0 0 1 208.5 489.5)"/><path d="M1.49998-0.00707636 2.40157 191.103-0.598398 191.117-1.49998 0.00707636ZM7.40828 182.834 0.915623 194.086-5.68291 182.895C-6.1037 182.182-5.86633 181.262-5.15273 180.841-4.43913 180.421-3.51952 180.658-3.09873 181.372L2.19367 190.347-0.39764 190.359 4.80984 181.334C5.22388 180.617 6.14121 180.371 6.85875 180.785 7.57629 181.199 7.82232 182.116 7.40828 182.834Z" fill="#FF0000" transform="matrix(-1 0 0 1 1079.42 430.5)"/><text font-family="Calibri,Calibri_MSFontService,sans-serif" font-weight="400" font-size="53" transform="translate(400.731 372)">No<tspan font-size="53" x="-293.792" y="178">Yes</tspan></text><path d="M476.5 391.5 648 292.5 819.5 391.5 648 490.5Z" stroke="#BC8C00" stroke-width="1.33333" stroke-miterlimit="8" fill="#FFC000" fill-rule="evenodd"/><text fill="#FFFFFF" font-family="Calibri,Calibri_MSFontService,sans-serif" font-weight="400" font-size="32" transform="translate(577.37 402)">decade &lt; 1</text><rect x="465.5" y="561.5" width="365" height="78" stroke="#2F528F" stroke-width="1.33333" stroke-miterlimit="8" fill="#4472C4"/><text fill="#FFFFFF" font-family="Calibri,Calibri_MSFontService,sans-serif" font-weight="400" font-size="32" transform="translate(530.254 611)">age_status<tspan font-size="32" x="146.68" y="0">= “kid”</tspan></text><path d="M0.0145955-1.49993 82.117-0.701006 82.0878 2.29885-0.0145955 1.49993ZM73.9223-5.82665 85.0792 0.827889 73.7949 7.26406C73.0753 7.6745 72.1592 7.42387 71.7487 6.70426 71.3383 5.98466 71.5889 5.06858 72.3085 4.65814L81.3592-0.504039 81.334 2.08717 72.3855-3.25015C71.674-3.67451 71.4413-4.5953 71.8656-5.30678 72.29-6.01826 73.2108-6.25102 73.9223-5.82665Z" fill="#FF0000" transform="matrix(1 0 0 -1 819.5 391.328)"/><text font-family="Calibri,Calibri_MSFontService,sans-serif" font-weight="400" font-size="53" transform="translate(827.992 374)">No</text><path d="M650 490.498 650.103 558.079 647.103 558.083 647 490.502ZM655.136 549.827 648.607 561.058 642.044 549.847C641.626 549.132 641.866 548.213 642.581 547.795 643.296 547.376 644.215 547.617 644.633 548.331L649.897 557.323 647.306 557.327 652.542 548.319C652.958 547.603 653.877 547.36 654.593 547.776 655.309 548.193 655.552 549.111 655.136 549.827Z" fill="#FF0000"/><text font-family="Calibri,Calibri_MSFontService,sans-serif" font-weight="400" font-size="53" transform="translate(550.649 523)">Yes</text><path d="M830.5 599 864.813 599 864.813 670.576 863.313 669.076 888.626 669.076 888.626 672.076 861.813 672.076 861.813 600.5 863.313 602 830.5 602ZM887.126 666.076 896.126 670.576 887.126 675.076Z" fill="#FF0000"/></g></svg>