<svg width="1052" height="704" xmlns="http://www.w3.org/2000/svg" xmlns:xlink="http://www.w3.org/1999/xlink" overflow="hidden"><defs><clipPath id="clip0"><rect x="86" y="2" width="1052" height="704"/></clipPath></defs><g clip-path="url(#clip0)" transform="translate(-86 -2)"><path d="M88.5001 128.001C88.5001 116.678 97.6784 107.5 109.001 107.5L433 107.5C444.322 107.5 453.5 116.678 453.5 128.001L453.5 210C453.5 221.322 444.322 230.5 433 230.5L109.001 230.5C97.6784 230.5 88.5001 221.322 88.5001 210Z" stroke="#7030A0" stroke-width="1.33333" stroke-miterlimit="8" fill="#7030A0" fill-rule="evenodd"/><text fill="#FFFFFF" font-family="Calibri,Calibri_MSFontService,sans-serif" font-weight="400" font-size="59" transform="translate(215.587 188)">start</text><path d="M88.5001 594.834C88.5001 583.604 97.6037 574.5 108.834 574.5L433.166 574.5C444.396 574.5 453.5 583.604 453.5 594.834L453.5 676.166C453.5 687.396 444.396 696.5 433.166 696.5L108.834 696.5C97.6037 696.5 88.5001 687.396 88.5001 676.166Z" stroke="#7030A0" stroke-width="1.33333" stroke-miterlimit="8" fill="#7030A0" fill-rule="evenodd"/><text fill="#FFFFFF" font-family="Calibri,Calibri_MSFontService,sans-serif" font-weight="400" font-size="59" transform="translate(224.983 655)">end</text><path d="M88.5001 474.5 122.25 339.5 453.5 339.5 419.75 474.5Z" stroke="#507E32" stroke-width="1.33333" stroke-miterlimit="8" fill="#70AD47" fill-rule="evenodd"/><text fill="#FFFFFF" font-family="Calibri,Calibri_MSFontService,sans-serif" font-weight="400" font-size="59" transform="translate(150.143 426)">Input: age<tspan fill="#000000" font-size="43" x="7.55527" y="-364">Example #1</tspan></text><path d="M767.5 116.834C767.5 108.365 774.365 101.5 782.834 101.5L1117.17 101.5C1125.63 101.5 1132.5 108.365 1132.5 116.834L1132.5 178.166C1132.5 186.635 1125.63 193.5 1117.17 193.5L782.834 193.5C774.365 193.5 767.5 186.635 767.5 178.166Z" stroke="#7030A0" stroke-width="1.33333" stroke-miterlimit="8" fill="#7030A0" fill-rule="evenodd"/><text fill="#FFFFFF" font-family="Calibri,Calibri_MSFontService,sans-serif" font-weight="400" font-size="48" transform="translate(904.815 163)">start</text><path d="M767.5 613.834C767.5 605.365 774.365 598.5 782.834 598.5L1117.17 598.5C1125.63 598.5 1132.5 605.365 1132.5 613.834L1132.5 675.166C1132.5 683.635 1125.63 690.5 1117.17 690.5L782.834 690.5C774.365 690.5 767.5 683.635 767.5 675.166Z" stroke="#7030A0" stroke-width="1.33333" stroke-miterlimit="8" fill="#7030A0" fill-rule="evenodd"/><text fill="#FFFFFF" font-family="Calibri,Calibri_MSFontService,sans-serif" font-weight="400" font-size="48" transform="translate(912.418 660)">end</text><path d="M767.5 360.5 788.75 275.5 1132.5 275.5 1111.25 360.5Z" stroke="#507E32" stroke-width="1.33333" stroke-miterlimit="8" fill="#70AD47" fill-rule="evenodd"/><text fill="#FFFFFF" font-family="Calibri,Calibri_MSFontService,sans-serif" font-weight="400" font-size="48" transform="translate(851.285 334)">Input: age<tspan fill="#000000" font-size="43" x="-14.4847" y="-278">Example #2</tspan></text><path d="M272 230.5 272 336.454 269 336.454 269 230.5ZM277.046 328.209 270.5 339.431 263.954 328.209C263.537 327.494 263.779 326.575 264.494 326.158 265.21 325.741 266.128 325.982 266.546 326.698L271.796 335.698 269.204 335.698 274.454 326.698C274.872 325.982 275.79 325.741 276.506 326.158 277.222 326.575 277.463 327.494 277.046 328.209Z" fill="#FF0000"/><path d="M272 474.5 272 570.994 269 570.994 269 474.5ZM277.046 562.749 270.5 573.971 263.954 562.749C263.537 562.034 263.779 561.115 264.494 560.698 265.21 560.281 266.128 560.522 266.546 561.238L271.796 570.238 269.204 570.238 274.454 561.238C274.872 560.522 275.79 560.28 276.506 560.698 277.222 561.115 277.463 562.034 277.046 562.749Z" fill="#FF0000"/><rect x="767.5" y="422.5" width="365" height="113" stroke="#2F528F" stroke-width="1.33333" stroke-miterlimit="8" fill="#4472C4"/><text fill="#FFFFFF" font-family="Calibri,Calibri_MSFontService,sans-serif" font-weight="400" font-size="43" transform="translate(787.855 493)">decade = age // 10</text><path d="M952 193.5 952 272.628 949 272.628 949 193.5ZM957.046 264.383 950.5 275.604 943.954 264.383C943.537 263.668 943.779 262.749 944.494 262.332 945.21 261.914 946.128 262.156 946.546 262.872L951.796 271.872 949.204 271.872 954.454 262.872C954.872 262.156 955.79 261.914 956.506 262.332 957.222 262.749 957.463 263.668 957.046 264.383Z" fill="#FF0000"/><path d="M952 360.5 952 419.667 949 419.667 949 360.5ZM957.046 411.423 950.5 422.644 943.954 411.423C943.537 410.707 943.779 409.789 944.494 409.371 945.21 408.954 946.128 409.196 946.546 409.911L951.796 418.911 949.204 418.911 954.454 409.911C954.872 409.196 955.79 408.954 956.506 409.371 957.222 409.789 957.463 410.707 957.046 411.423Z" fill="#FF0000"/><path d="M952 535.5 952 594.927 949 594.927 949 535.5ZM957.046 586.682 950.5 597.904 943.954 586.682C943.537 585.967 943.779 585.048 944.494 584.631 945.21 584.214 946.128 584.455 946.546 585.171L951.796 594.171 949.204 594.171 954.454 585.171C954.872 584.455 955.79 584.214 956.506 584.631 957.222 585.048 957.463 585.967 957.046 586.682Z" fill="#FF0000"/></g></svg>