<svg width="1094" height="723" xmlns="http://www.w3.org/2000/svg" xmlns:xlink="http://www.w3.org/1999/xlink" overflow="hidden"><defs><clipPath id="clip0"><rect x="9" y="-6" width="1094" height="723"/></clipPath></defs><g clip-path="url(#clip0)" transform="translate(-9 6)"><path d="M527.5 14.5002C527.5 8.97728 531.977 4.50005 537.5 4.50005L748.5 4.50005C754.023 4.50005 758.5 8.97728 758.5 14.5002L758.5 54.4999C758.5 60.0228 754.023 64.5 748.5 64.5L537.5 64.5C531.977 64.5 527.5 60.0228 527.5 54.4999Z" stroke="#7030A0" stroke-width="1.33333" stroke-miterlimit="8" fill="#7030A0" fill-rule="evenodd"/><text fill="#FFFFFF" font-family="Calibri,Calibri_MSFontService,sans-serif" font-weight="400" font-size="32" transform="translate(612.807 45)">start</text><path d="M526.5 653.667C526.5 646.947 531.947 641.5 538.667 641.5L747.333 641.5C754.053 641.5 759.5 646.947 759.5 653.667L759.5 702.333C759.5 709.053 754.053 714.5 747.333 714.5L538.667 714.5C531.947 714.5 526.5 709.053 526.5 702.333Z" stroke="#7030A0" stroke-width="1.33333" stroke-miterlimit="8" fill="#7030A0" fill-rule="evenodd"/><text fill="#FFFFFF" font-family="Calibri,Calibri_MSFontService,sans-serif" font-weight="400" font-size="32" transform="translate(617.797 688)">end<tspan fill="#000000" font-size="43" x="-582.224" y="-641">Flowchart </tspan><tspan fill="#000000" font-size="43" x="-582.224" y="-590">with a loop</tspan><tspan fill="#000000" font-size="43" x="-582.224" y="-539">and</tspan><tspan fill="#000000" font-size="43" x="-582.224" y="-487">continue</tspan></text><path d="M1.49912-0.0512847 2.41028 26.5832-0.587963 26.6858-1.49912 0.0512847ZM7.17113 18.1713 1.01294 29.6097-5.91255 18.6189C-6.35419 17.918-6.14403 16.9918-5.44314 16.5502-4.74225 16.1085-3.81605 16.3187-3.37441 17.0196L2.18023 25.8348-0.409592 25.9234 4.52963 16.7492C4.92234 16.0197 5.83202 15.7468 6.56145 16.1395 7.29088 16.5322 7.56384 17.4419 7.17113 18.1713Z" fill="#FF0000" transform="matrix(-1 0 0 1 643.513 64.5001)"/><path d="M498.5 162.5 642 94.5001 785.5 162.5 642 230.5Z" stroke="#BC8C00" stroke-width="1.33333" stroke-miterlimit="8" fill="#FFC000" fill-rule="evenodd"/><text fill="#FFFFFF" font-family="Calibri,Calibri_MSFontService,sans-serif" font-weight="400" font-size="27" transform="translate(592.214 139)">Last item <tspan font-size="27" x="39.2867" y="32">in </tspan><tspan font-size="27" x="-8.71338" y="64">sequence?</tspan></text><rect x="498.5" y="262.5" width="287" height="47" stroke="#2F528F" stroke-width="1.33333" stroke-miterlimit="8" fill="#4472C4"/><text fill="#FFFFFF" font-family="Calibri,Calibri_MSFontService,sans-serif" font-weight="400" font-size="27" transform="translate(549.548 295)">Do some process</text><path d="M644 230.5 644 260.121 641 260.121 641 230.5ZM649.046 251.877 642.5 263.098 635.954 251.877C635.537 251.162 635.779 250.243 636.494 249.826 637.21 249.408 638.128 249.65 638.546 250.366L643.796 259.366 641.204 259.366 646.454 250.366C646.872 249.65 647.79 249.408 648.506 249.826 649.221 250.243 649.463 251.162 649.046 251.877Z" fill="#FF0000"/><text font-family="Calibri,Calibri_MSFontService,sans-serif" font-weight="400" font-size="32" transform="translate(781.661 153)">Yes<tspan font-size="32" x="-326.192" y="232">Yes</tspan></text><path d="M0.0414207 1.49943-11.2711 1.81193-11.2044 1.8086-22.4544 2.6211-22.3795 2.6138-33.567 3.9888-33.5021 3.97937-44.6896 5.85437-44.6226 5.84158-55.6851 8.21658-55.6187 8.20072-66.5562 11.0757-66.5004 11.0599-77.3754 14.3724-77.3133 14.352-87.9383 18.102-87.8818 18.0808-98.3818 22.2683-98.3237 22.2437-108.636 26.8687-108.589 26.8466-118.652 31.7841-118.595 31.755-128.47 37.13-128.39 37.0828-147.202 48.8953-147.11 48.8321-164.735 61.8321-164.659 61.7724-172.971 68.7724-172.926 68.7325-180.863 75.9825-180.819 75.9401-188.319 83.3776-188.266 83.3228-195.329 91.0728-195.294 91.0334-201.982 98.9084-201.932 98.8463-208.119 106.971-208.079 106.916-213.829 115.228-213.785 115.161-218.972 123.598-218.932 123.529-223.62 132.154-223.582 132.081-227.708 140.768-227.668 140.679-231.168 149.491-231.14 149.415-234.14 158.352-234.11 158.248-236.422 167.248-236.401 167.151-238.088 176.151-238.073 176.048-239.135 185.173-239.126 185.052-239.438 194.114-239.439 194.001-239.064 203.126-239.072 203.023-238.072 212.085-238.088 211.974-236.401 220.974-236.425 220.867-234.05 229.867-234.075 229.782-231.137 238.719-231.172 238.625-227.609 247.438-227.643 247.36-223.518 256.11-223.559 256.03-218.872 264.592-218.907 264.531-213.72 273.031-213.769 272.955-208.019 281.205-208.057 281.154-201.869 289.279-201.915 289.221-195.228 297.159-195.275 297.105-188.15 304.793-188.189 304.752-180.689 312.252-180.743 312.201-172.806 319.388-172.846 319.353-164.534 326.353-164.607 326.295-146.982 339.357-147.082 339.289-128.207 351.039-128.283 350.995-118.408 356.37-118.461 356.343-108.336 361.343-108.393 361.316-98.0806 365.878-98.1318 365.857-87.6318 370.044-87.6909 370.022-77.0034 373.772-77.0606 373.753-66.2481 377.066-66.3082 377.049-55.3082 379.924-55.3726 379.908-44.3101 382.283-44.3771 382.271-33.1896 384.146-33.2555 384.136-22.0055 385.511-22.08 385.504-10.7675 386.316-10.8336 386.313-7.01822 386.418-7.10105 389.417-10.9495 389.311-22.3323 388.493-33.6526 387.11-44.9065 385.224-56.0347 382.835-67.097 379.943-77.9682 376.613-88.7139 372.842-99.269 368.633-109.636 364.046-119.816 359.019-129.756 353.609-148.719 341.804-166.431 328.677-174.799 321.63-182.784 314.399-190.331 306.853-197.499 299.119-204.233 291.126-210.463 282.946-216.257 274.633-221.486 266.064-226.212 257.431-230.375 248.601-233.972 239.703-236.939 230.676-239.339 221.58-241.047 212.471-242.059 203.301-242.439 194.067-242.122 184.887-241.046 175.65-239.34 166.55-237.002 157.449-233.972 148.422-230.439 139.526-226.275 130.757-221.549 122.061-216.319 113.555-210.527 105.181-204.294 96.997-197.564 89.0715-190.458 81.2741-182.909 73.7882-174.927 66.4971-166.554 59.4465-148.845 46.3845-129.946 34.5173-120.002 29.1049-109.887 24.142-99.5225 19.4934-88.9652 15.283-78.2809 11.5121-67.3468 8.18165-56.3483 5.29059-45.219 2.90126-33.9656 1.01521-22.7081-0.368391-11.3873-1.18601-0.0414207-1.49943ZM-8.4348 383.378 0.4375 388.125-8.68333 392.375Z" fill="#FF0000" transform="matrix(1 -1.22465e-16 -1.22465e-16 -1 498.5 550.611)"/><path d="M0 1.5-315.945 1.5-314.445 0-314.445 515.816-315.945 514.316 18.2759 514.316 18.2759 517.316-317.445 517.316-317.445-1.5 0-1.5ZM16.7757 511.316 25.7757 515.816 16.7757 520.316Z" fill="#FF0000" transform="matrix(-1 0 0 1 785.276 162.5)"/><rect x="498.5" y="524.5" width="287" height="52" stroke="#2F528F" stroke-width="1.33333" stroke-miterlimit="8" fill="#4472C4"/><text fill="#FFFFFF" font-family="Calibri,Calibri_MSFontService,sans-serif" font-weight="400" font-size="27" transform="translate(516.298 559)">Do some other process</text><path d="M498.5 419.5 642 364.5 785.5 419.5 642 474.5Z" stroke="#BC8C00" stroke-width="1.33333" stroke-miterlimit="8" fill="#FFC000" fill-rule="evenodd"/><text fill="#FFFFFF" font-family="Calibri,Calibri_MSFontService,sans-serif" font-weight="400" font-size="27" transform="translate(587.526 428)">continue?</text><path d="M1.49999-0.00568401 1.69692 51.9647-1.30305 51.9761-1.49999 0.00568401ZM6.71132 43.7013 0.208215 54.9472-6.37993 43.751C-6.80006 43.037-6.56183 42.1176-5.84784 41.6974-5.13385 41.2773-4.21447 41.5155-3.79434 42.2295L1.48973 51.2096-1.10159 51.2194 4.11427 42.1996C4.52898 41.4824 5.44653 41.2372 6.16368 41.6519 6.88084 42.0666 7.12602 42.9842 6.71132 43.7013Z" fill="#FF0000" transform="matrix(-1 0 0 1 641.708 309.5)"/><path d="M1.49999-0.0062488 1.69591 47.0234-1.30407 47.0359-1.49999 0.0062488ZM6.70719 38.7583 0.208323 50.0066-6.38403 38.8129C-6.80443 38.099-6.56656 37.1796-5.85272 36.7591-5.13889 36.3388-4.21942 36.5766-3.79902 37.2905L1.48843 46.2685-1.10288 46.2793 4.10958 37.2575C4.52401 36.5402 5.44147 36.2947 6.15878 36.7091 6.8761 37.1236 7.12162 38.041 6.70719 38.7583Z" fill="#FF0000" transform="matrix(-1 0 0 1 641.708 474.5)"/><text font-family="Calibri,Calibri_MSFontService,sans-serif" font-weight="400" font-size="24" transform="translate(651.691 93)">For item in sequence</text><path d="M0.0548414 1.499-5.07016 1.6865-4.96135 1.67855-10.0863 2.24105-9.9419 2.21802-20.0669 4.34302-19.8822 4.29175-29.9447 7.79175-29.7876 7.72688-39.5376 12.4144-39.4009 12.3397-48.8384 18.1522-48.7184 18.07-57.7809 24.945-57.6765 24.8581-66.239 32.6706-66.1466 32.5786-74.1466 41.2661-74.0672 41.1725-81.3797 50.5475-81.3132 50.4553-88.0007 60.5178-87.934 60.4074-93.7465 71.0324-93.6943 70.9274-98.6943 82.0524-98.6458 81.9303-102.646 93.4303-102.607 93.3013-105.545 105.051-105.517 104.913-107.329 116.85-107.315 116.703-107.94 128.765-107.94 128.61-107.315 140.672-107.329 140.525-105.517 152.462-105.547 152.316-102.547 164.066-102.583 163.945-98.5833 175.445-98.6318 175.323-93.6318 186.448-93.684 186.343-87.8715 196.968-87.9382 196.857-81.2507 206.92-81.3181 206.826-73.9431 216.264-74.0292 216.163-65.9667 224.788-66.0515 224.704-57.489 232.517-57.5974 232.427-48.4724 239.302-48.5884 239.223-39.1509 245.035-39.2909 244.959-29.4784 249.646-29.6322 249.583-19.5697 253.083-19.7562 253.032-9.56871 255.157-9.74536 255.131-6.91587 255.376-7.17515 258.365-10.0937 258.112-20.4637 255.949-30.6964 252.389-40.6561 247.632-50.2215 241.74-59.4589 234.781-68.1176 226.88-76.2661 218.163-83.7174 208.628-90.4725 198.464-96.3441 187.731-101.395 176.492-105.438 164.87-108.472 152.986-110.307 140.902-110.94 128.687-110.307 116.473-108.472 104.392-105.501 92.5083-101.458 80.8826-96.4066 69.6441-90.535 58.911-83.7803 48.7473-76.395 39.2791-68.3092 30.4984-59.6483 22.5961-50.4736 15.636-40.9077 9.74441-31.0107 4.98623-20.7771 1.42671-10.4864-0.733057-5.23439-1.3095-0.0548414-1.499ZM-8.23938 252.28 0.4375 257.375-8.84484 261.259Z" fill="#FF0000" transform="matrix(1 -1.22465e-16 -1.22465e-16 -1 498.5 419.837)"/><text font-family="Calibri,Calibri_MSFontService,sans-serif" font-weight="400" font-size="32" transform="translate(585.13 501)">No</text></g></svg>