<svg width="934" height="701" xmlns="http://www.w3.org/2000/svg" xmlns:xlink="http://www.w3.org/1999/xlink" overflow="hidden"><defs><clipPath id="clip0"><rect x="9" y="-6" width="934" height="701"/></clipPath></defs><g clip-path="url(#clip0)" transform="translate(-9 6)"><path d="M527.5 14.5002C527.5 8.97728 531.977 4.50005 537.5 4.50005L748.5 4.50005C754.023 4.50005 758.5 8.97728 758.5 14.5002L758.5 54.4999C758.5 60.0228 754.023 64.5 748.5 64.5L537.5 64.5C531.977 64.5 527.5 60.0228 527.5 54.4999Z" stroke="#7030A0" stroke-width="1.33333" stroke-miterlimit="8" fill="#7030A0" fill-rule="evenodd"/><text fill="#FFFFFF" font-family="Calibri,Calibri_MSFontService,sans-serif" font-weight="400" font-size="32" transform="translate(612.807 45)">start</text><path d="M526.5 632.5C526.5 625.873 531.873 620.5 538.5 620.5L747.5 620.5C754.127 620.5 759.5 625.873 759.5 632.5L759.5 680.5C759.5 687.127 754.127 692.5 747.5 692.5L538.5 692.5C531.873 692.5 526.5 687.127 526.5 680.5Z" stroke="#7030A0" stroke-width="1.33333" stroke-miterlimit="8" fill="#7030A0" fill-rule="evenodd"/><text fill="#FFFFFF" font-family="Calibri,Calibri_MSFontService,sans-serif" font-weight="400" font-size="32" transform="translate(617.797 667)">end</text><path d="M506.5 152.5 520.5 96.5001 777.5 96.5001 763.5 152.5Z" stroke="#507E32" stroke-width="1.33333" stroke-miterlimit="8" fill="#70AD47" fill-rule="evenodd"/><text fill="#FFFFFF" font-family="Calibri,Calibri_MSFontService,sans-serif" font-weight="400" font-size="32" transform="translate(547.584 135)">Input: <tspan font-size="32" x="84.8334" y="0">number</tspan><tspan fill="#000000" font-size="43" x="-512.012" y="-88">Flowchart </tspan><tspan fill="#000000" font-size="43" x="-512.012" y="-37">with a loop</tspan></text><path d="M1.49923-0.0480728 2.41664 28.563-0.581814 28.6592-1.49923 0.0480728ZM7.19551 20.1613 1.01282 31.5865-5.88911 20.5809C-6.32925 19.879-6.1171 18.9533-5.41527 18.5131-4.71344 18.073-3.78768 18.2852-3.34755 18.987L2.18819 27.8141-0.401811 27.8972 4.55705 18.7335C4.95133 18.0049 5.86159 17.7339 6.59017 18.1282 7.31876 18.5225 7.58978 19.4327 7.19551 20.1613Z" fill="#FF0000" transform="matrix(-1 0 0 1 643.513 64.5001)"/><path d="M1.5-2.77401e-06 1.5001 53.7999-1.4999 53.8-1.5 2.77401e-06ZM6.54575 45.5558 0.000105041 56.7769-6.54558 45.5558C-6.96301 44.8402-6.7213 43.9217-6.00573 43.5043-5.29015 43.0869-4.37167 43.3286-3.95425 44.0442L1.29577 53.0442-1.29557 53.0442 3.95441 44.0442C4.37183 43.3286 5.29031 43.0869 6.00589 43.5043 6.72147 43.9217 6.96317 44.8402 6.54575 45.5558Z" fill="#FF0000" transform="matrix(-1 0 0 1 642.5 152.5)"/><path d="M498.5 308.5 642 209.5 785.5 308.5 642 407.5Z" stroke="#BC8C00" stroke-width="1.33333" stroke-miterlimit="8" fill="#FFC000" fill-rule="evenodd"/><text fill="#FFFFFF" font-family="Calibri,Calibri_MSFontService,sans-serif" font-weight="400" font-size="32" transform="translate(604.418 299)">check <tspan font-size="32" x="-24.2" y="38">conditio</tspan><tspan font-size="32" x="81.7" y="38">n</tspan></text><rect x="498.5" y="490.5" width="287" height="79" stroke="#2F528F" stroke-width="1.33333" stroke-miterlimit="8" fill="#4472C4"/><text fill="#FFFFFF" font-family="Calibri,Calibri_MSFontService,sans-serif" font-weight="400" font-size="27" transform="translate(549.548 539)">Do some process</text><path d="M644 407.5 644 488.226 641 488.226 641 407.5ZM649.046 479.982 642.5 491.203 635.954 479.982C635.537 479.266 635.779 478.348 636.494 477.93 637.21 477.513 638.128 477.754 638.546 478.47L643.796 487.47 641.204 487.47 646.454 478.47C646.872 477.754 647.79 477.513 648.506 477.93 649.222 478.348 649.463 479.266 649.046 479.982Z" fill="#FF0000"/><text font-family="Calibri,Calibri_MSFontService,sans-serif" font-weight="400" font-size="32" transform="translate(802.115 294)">No<tspan font-size="32" x="-149.918" y="153">Yes</tspan></text><path d="M499.731 531.919 490.505 531.287 481.192 529.373 472.088 526.317 463.257 522.188 454.692 517.112 446.515 511.09 438.795 504.257 431.521 496.729 424.879 488.506 418.871 479.716 413.623 470.42 409.132 460.744 405.523 450.74 402.863 440.414 401.215 429.955 400.644 419.422 401.215 408.89 402.862 398.435 405.458 388.113 409.004 378.109 413.433 368.428 418.68 359.135 424.561 350.345 431.137 342.189 438.221 334.599 445.886 327.758 453.933 321.801 462.375 316.66 471.15 312.591 480.124 309.536 489.251 307.621 490.872 307.508 491.08 310.501 489.562 310.606 489.766 310.578 480.829 312.453 481.004 312.405 472.192 315.405 472.339 315.346 463.714 319.346 463.864 319.266 455.551 324.328 455.663 324.253 447.726 330.128 447.832 330.041 440.27 336.791 440.367 336.696 433.367 344.196 433.439 344.114 426.939 352.176 427.018 352.069 421.205 360.756 421.265 360.66 416.077 369.847 416.135 369.734 411.76 379.296 411.81 379.173 408.31 389.048 408.351 388.913 405.788 399.101 405.815 398.968 404.19 409.281 404.206 409.129 403.644 419.504 403.644 419.341 404.206 429.716 404.19 429.564 405.815 439.876 405.786 439.736 408.411 449.923 408.369 449.788 411.932 459.663 411.882 459.541 416.319 469.103 416.265 468.997 421.452 478.185 421.384 478.076 427.322 486.763 427.25 486.667 433.813 494.792 433.725 494.693 440.912 502.13 440.828 502.049 448.453 508.799 448.348 508.715 456.41 514.652 456.286 514.569 464.723 519.569 464.594 519.501 473.281 523.564 473.123 523.5 482.061 526.5 481.885 526.453 491.01 528.328 490.811 528.301 499.936 528.926ZM489.168 304.619 498.458 308.485 489.792 313.598Z" fill="#FF0000"/><path d="M0 1.5-141.041 1.5-139.541 0-139.541 348.05-141.041 346.55 18.2758 346.55 18.2758 349.55-142.541 349.55-142.541-1.5 0-1.5ZM16.7757 343.55 25.7757 348.05 16.7757 352.55Z" fill="#FF0000" transform="matrix(-1 0 0 1 785.276 308.5)"/></g></svg>