<svg width="1105" height="723" xmlns="http://www.w3.org/2000/svg" xmlns:xlink="http://www.w3.org/1999/xlink" overflow="hidden"><defs><clipPath id="clip0"><rect x="9" y="-6" width="1105" height="723"/></clipPath></defs><g clip-path="url(#clip0)" transform="translate(-9 6)"><path d="M527.5 14.5002C527.5 8.97728 531.977 4.50005 537.5 4.50005L748.5 4.50005C754.023 4.50005 758.5 8.97728 758.5 14.5002L758.5 54.4999C758.5 60.0228 754.023 64.5 748.5 64.5L537.5 64.5C531.977 64.5 527.5 60.0228 527.5 54.4999Z" stroke="#7030A0" stroke-width="1.33333" stroke-miterlimit="8" fill="#7030A0" fill-rule="evenodd"/><text fill="#FFFFFF" font-family="Calibri,Calibri_MSFontService,sans-serif" font-weight="400" font-size="32" transform="translate(612.807 45)">start</text><path d="M526.5 653.667C526.5 646.947 531.947 641.5 538.667 641.5L747.333 641.5C754.053 641.5 759.5 646.947 759.5 653.667L759.5 702.333C759.5 709.053 754.053 714.5 747.333 714.5L538.667 714.5C531.947 714.5 526.5 709.053 526.5 702.333Z" stroke="#7030A0" stroke-width="1.33333" stroke-miterlimit="8" fill="#7030A0" fill-rule="evenodd"/><text fill="#FFFFFF" font-family="Calibri,Calibri_MSFontService,sans-serif" font-weight="400" font-size="32" transform="translate(617.797 688)">end<tspan fill="#000000" font-size="43" x="-582.224" y="-641">Flowchart </tspan><tspan fill="#000000" font-size="43" x="-582.224" y="-590">with a loop</tspan><tspan fill="#000000" font-size="43" x="-582.224" y="-539">and</tspan><tspan fill="#000000" font-size="43" x="-507.058" y="-539">brea</tspan><tspan fill="#000000" font-size="43" x="-428.618" y="-539">k</tspan></text><path d="M1.49912-0.0512847 2.41028 26.5832-0.587963 26.6858-1.49912 0.0512847ZM7.17113 18.1713 1.01294 29.6097-5.91255 18.6189C-6.35419 17.918-6.14403 16.9918-5.44314 16.5502-4.74225 16.1085-3.81605 16.3187-3.37441 17.0196L2.18023 25.8348-0.409592 25.9234 4.52963 16.7492C4.92234 16.0197 5.83202 15.7468 6.56145 16.1395 7.29088 16.5322 7.56384 17.4419 7.17113 18.1713Z" fill="#FF0000" transform="matrix(-1 0 0 1 643.513 64.5001)"/><path d="M498.5 162.5 642 94.5001 785.5 162.5 642 230.5Z" stroke="#BC8C00" stroke-width="1.33333" stroke-miterlimit="8" fill="#FFC000" fill-rule="evenodd"/><text fill="#FFFFFF" font-family="Calibri,Calibri_MSFontService,sans-serif" font-weight="400" font-size="27" transform="translate(592.214 139)">Last item <tspan font-size="27" x="39.2867" y="32">in </tspan><tspan font-size="27" x="-8.71338" y="64">sequence?</tspan></text><rect x="498.5" y="262.5" width="287" height="47" stroke="#2F528F" stroke-width="1.33333" stroke-miterlimit="8" fill="#4472C4"/><text fill="#FFFFFF" font-family="Calibri,Calibri_MSFontService,sans-serif" font-weight="400" font-size="27" transform="translate(549.548 295)">Do some process</text><path d="M644 230.5 644 260.121 641 260.121 641 230.5ZM649.046 251.877 642.5 263.098 635.954 251.877C635.537 251.162 635.779 250.243 636.494 249.826 637.21 249.408 638.128 249.65 638.546 250.366L643.796 259.366 641.204 259.366 646.454 250.366C646.872 249.65 647.79 249.408 648.506 249.826 649.221 250.243 649.463 251.162 649.046 251.877Z" fill="#FF0000"/><text font-family="Calibri,Calibri_MSFontService,sans-serif" font-weight="400" font-size="32" transform="translate(781.661 153)">Yes<tspan font-size="32" x="12.686" y="256">Yes</tspan></text><path d="M0.0572103 1.49891-8.13029 1.81141-8.03937 1.80517-16.2269 2.61767-16.1266 2.60428-24.3141 3.97928-24.2252 3.96159-32.3502 5.83659-32.2606 5.81297-40.2606 8.18797-40.1802 8.16161-48.1802 11.0366-48.1059 11.0077-55.9809 14.3202-55.9092 14.2877-63.6592 18.0377-63.5904 18.0023-71.2154 22.1898-71.1502 22.1518-78.6502 26.7768-78.5981 26.7431-85.9106 31.6806-85.8517 31.6388-93.0392 37.0138-92.9575 36.9481-106.645 48.7606-106.557 48.6779-119.369 61.6779-119.28 61.5793-131.03 75.8293-130.961 75.7382-141.648 90.9257-141.579 90.817-150.891 106.817-150.848 106.737-155.035 115.05-155.004 114.984-158.754 123.422-158.732 123.368-162.169 131.993-162.145 131.927-165.145 140.615-165.122 140.544-167.685 149.356-167.666 149.284-169.791 158.222-169.776 158.151-171.463 167.151-171.452 167.081-172.702 176.081-172.693 175.998-173.443 185.123-173.438 185.041-173.688 194.104-173.688 194.021-173.438 203.146-173.443 203.064-172.693 212.126-172.702 212.044-171.452 221.044-171.463 220.974-169.776 229.974-169.793 229.893-167.605 238.831-167.622 238.769-165.06 247.581-165.081 247.514-162.081 256.264-162.104 256.2-158.729 264.762-158.756 264.699-154.944 273.199-154.975 273.134-150.787 281.384-150.83 281.306-141.455 297.369-141.521 297.265-130.896 312.453-130.972 312.353-119.16 326.54-119.244 326.447-106.369 339.51-106.46 339.424-92.773 351.174-92.8517 351.111-85.6642 356.486-85.7208 356.446-78.3458 361.446-78.4079 361.406-70.9079 365.969-70.9655 365.935-63.3405 370.123-63.4134 370.085-55.6009 373.835-55.6684 373.805-47.7934 377.117-47.8677 377.088-39.8677 379.963-39.9511 379.936-31.8886 382.311-31.9752 382.288-23.8502 384.163-23.9391 384.146-15.7516 385.521-15.8658 385.506-6.92143 386.309-7.18976 389.297-16.1916 388.489-24.4806 387.097-32.6934 385.202-40.841 382.801-48.9198 379.898-56.8657 376.556-64.7486 372.772-72.4387 368.549-79.9986 363.95-87.433 358.91-94.6887 353.484-108.462 341.66-121.425 328.508-133.318 314.224-144.014 298.934-153.443 282.781-157.666 274.459-161.508 265.895-164.908 257.269-167.93 248.453-170.512 239.575-172.717 230.567-174.418 221.492-175.679 212.415-176.436 203.27-176.688 194.062-176.436 184.918-175.679 175.71-174.418 166.633-172.718 157.563-170.576 148.554-167.992 139.671-164.969 130.915-161.508 122.23-157.731 113.733-153.507 105.347-144.139 89.2521-133.381 73.9649-121.553 59.6194-108.651 46.529-94.8778 34.6427-87.6194 29.2146-80.2512 24.2395-72.6927 19.5784-65.0007 15.3541-57.1804 11.5701-49.2323 8.22688-41.155 5.32407-33.07 2.92384-24.8556 1.02822-16.5735-0.362669-8.29027-1.18467-0.0572103-1.49891ZM-8.36117 383.243 0.4375 388.125-8.74726 392.235Z" fill="#FF0000" transform="matrix(1 -1.22465e-16 -1.22465e-16 -1 498.5 550.611)"/><path d="M0 1.5-315.945 1.5-314.445 0-314.445 515.816-315.945 514.316 18.2759 514.316 18.2759 517.316-317.445 517.316-317.445-1.5 0-1.5ZM16.7757 511.316 25.7757 515.816 16.7757 520.316Z" fill="#FF0000" transform="matrix(-1 0 0 1 785.276 162.5)"/><rect x="498.5" y="524.5" width="287" height="52" stroke="#2F528F" stroke-width="1.33333" stroke-miterlimit="8" fill="#4472C4"/><text fill="#FFFFFF" font-family="Calibri,Calibri_MSFontService,sans-serif" font-weight="400" font-size="27" transform="translate(516.298 559)">Do some other process</text><path d="M498.5 419.5 642 364.5 785.5 419.5 642 474.5Z" stroke="#BC8C00" stroke-width="1.33333" stroke-miterlimit="8" fill="#FFC000" fill-rule="evenodd"/><text fill="#FFFFFF" font-family="Calibri,Calibri_MSFontService,sans-serif" font-weight="400" font-size="27" transform="translate(604.303 428)">Break?</text><path d="M1.49999-0.00568401 1.69692 51.9647-1.30305 51.9761-1.49999 0.00568401ZM6.71132 43.7013 0.208215 54.9472-6.37993 43.751C-6.80006 43.037-6.56183 42.1176-5.84784 41.6974-5.13385 41.2773-4.21447 41.5155-3.79434 42.2295L1.48973 51.2096-1.10159 51.2194 4.11427 42.1996C4.52898 41.4824 5.44653 41.2372 6.16368 41.6519 6.88084 42.0666 7.12602 42.9842 6.71132 43.7013Z" fill="#FF0000" transform="matrix(-1 0 0 1 641.708 309.5)"/><path d="M0.0147247-1.49993 311.494 1.55785 311.465 4.55771-0.0147247 1.49993ZM303.299-3.56851 314.456 3.087 303.171 9.5222C302.451 9.93257 301.535 9.68186 301.125 8.96222 300.714 8.24258 300.965 7.32652 301.685 6.91615L310.736 1.75475 310.71 4.34596 301.762-0.992136C301.051-1.41656 300.818-2.33737 301.243-3.04881 301.667-3.76026 302.588-3.99293 303.299-3.56851Z" fill="#FF0000" transform="matrix(1 0 0 -1 785.5 419.587)"/><path d="M1.49999-0.0062488 1.69591 47.0234-1.30407 47.0359-1.49999 0.0062488ZM6.70719 38.7583 0.208323 50.0066-6.38403 38.8129C-6.80443 38.099-6.56656 37.1796-5.85272 36.7591-5.13889 36.3388-4.21942 36.5766-3.79902 37.2905L1.48843 46.2685-1.10288 46.2793 4.10958 37.2575C4.52401 36.5402 5.44147 36.2947 6.15878 36.7091 6.8761 37.1236 7.12162 38.041 6.70719 38.7583Z" fill="#FF0000" transform="matrix(-1 0 0 1 641.708 474.5)"/><text font-family="Calibri,Calibri_MSFontService,sans-serif" font-weight="400" font-size="24" transform="translate(651.691 93)">For item in sequence</text></g></svg>